<?xml version="1.0" encoding="utf-8"?>
<!-- Generator: Adobe Illustrator 15.1.0, SVG Export Plug-In . SVG Version: 6.00 Build 0)  -->
<!DOCTYPE svg PUBLIC "-//W3C//DTD SVG 1.1//EN" "http://www.w3.org/Graphics/SVG/1.1/DTD/svg11.dtd">
<svg version="1.1" id="Layer_1" xmlns="http://www.w3.org/2000/svg" xmlns:xlink="http://www.w3.org/1999/xlink" x="0px" y="0px"
	 width="66px" height="46px" viewBox="0 0 66 46" enable-background="new 0 0 66 46" xml:space="preserve">
<g>
	<polygon fill="#999999" points="15.071,4.757 12.242,1.929 8,6.171 3.758,1.929 0.929,4.757 5.171,9 0.929,13.242 3.758,16.071 
		8,11.829 12.242,16.071 15.071,13.242 10.829,9 	"/>
</g>
<g>
	<polygon fill="#999999" points="57.172,0.515 54.344,3.343 60,9 54.344,14.656 57.172,17.485 65.656,9 	"/>
</g>
<g>
	<polygon fill="#999999" points="40.656,3.344 37.828,0.515 29.344,9 37.828,17.485 40.656,14.657 35,9 	"/>
</g>
<g>
	<polygon fill="#CCCCCC" points="57.172,28.515 54.344,31.344 60,37 54.344,42.656 57.172,45.485 65.656,37 	"/>
</g>
<g>
	<polygon fill="#CCCCCC" points="40.656,31.344 37.828,28.515 29.344,37 37.828,45.485 40.656,42.656 35,37 	"/>
</g>
<g>
	<polygon fill="#CCCCCC" points="15.071,32.758 12.242,29.929 8,34.171 3.758,29.929 0.929,32.758 5.171,37 0.929,41.242 
		3.758,44.071 8,39.829 12.242,44.071 15.071,41.242 10.829,37 	"/>
</g>
</svg>
