<?xml version="1.0" encoding="utf-8"?>
<!-- Generator: Adobe Illustrator 15.1.0, SVG Export Plug-In . SVG Version: 6.00 Build 0)  -->
<!DOCTYPE svg PUBLIC "-//W3C//DTD SVG 1.1//EN" "http://www.w3.org/Graphics/SVG/1.1/DTD/svg11.dtd">
<svg version="1.1" id="Icons" xmlns="http://www.w3.org/2000/svg" xmlns:xlink="http://www.w3.org/1999/xlink" x="0px" y="0px"
	 width="120px" height="57px" viewBox="-139 300 120 57" enable-background="new -139 300 120 57" xml:space="preserve">
<rect id="Debug_BG" x="-157" y="277" display="none" fill="#FF993F" width="158" height="244"/>
<rect x="-59" y="316" display="none" fill="#FC7232" width="32" height="32"/>
<g id="Calendar_Icon">
	<path fill="#999999" d="M-61,300v16h17v-16H-61z M-57,315h-3v-3h3V315z M-57,311h-3v-3h3V311z M-57,307h-3v-3h3V307z M-53,315h-3
		v-3h3V315z M-53,311h-3v-3h3V311z M-53,307h-3v-3h3V307z M-49,315h-3v-3h3V315z M-49,311h-3v-3h3V311z M-49,307h-3v-3h3V307z
		 M-45,315h-3v-3h3V315z M-45,311h-3v-3h3V311z M-45,307h-3v-3h3V307z"/>
</g>
<g>
	<path fill="#FFFFFF" d="M-116,300v30h30v-30H-116z M-89.05,321.932c-3.82,6.575-25.795,10.677-25.257-3.227
		c0.704-18.166,21.78-15.788,21.78-15.788s-9.297-0.694-15.018,4.57c-5.088,4.682-8.005,14.912,0.287,18.29
		c5.197,2.118,14.971-1.438,17.466-5.519c6.189-10.12-8.029-15.196-8.029-15.196S-81.35,308.683-89.05,321.932z"/>
</g>
<g>
	<g>
		<path fill="#CCCCCC" d="M-86,312h24l-12-12L-86,312z"/>
	</g>
	<g>
		<path fill="#FFFFFF" d="M-85,313h22l-11-11L-85,313z"/>
	</g>
</g>
<g>
	<g>
		<path fill="#CCCCCC" d="M-62,313h-24l12,12L-62,313z"/>
	</g>
	<g>
		<path fill="#FFFFFF" d="M-63,312h-22l11,11L-63,312z"/>
	</g>
</g>
<g>
	<polygon id="Arrow_Down_Small_5_" fill="#CCCCCC" points="-87,348 -78,348 -82.5,356 	"/>
	<polygon id="Arrow_Up_Small_3_" fill="#CCCCCC" points="-68,356 -77,356 -72.5,348 	"/>
	<g id="Arrow_Right_Small_2_">
		<polygon fill="#999999" points="-130,347 -130,338 -122,342.5 		"/>
	</g>
	<g id="Arrow_Left_Small_10_">
		<polygon fill="#999999" points="-131,338 -131,347 -139,342.5 		"/>
	</g>
	<polygon id="Arrow_Down_Small_4_" fill="#999999" points="-87,338 -78,338 -82.5,346 	"/>
	<polygon id="Arrow_Up_Small_2_" fill="#999999" points="-68,346 -77,346 -72.5,338 	"/>
	<g id="Arrow_Left_Small_9_">
		<polygon fill="#999999" points="-113,338 -113,347 -121,342.5 		"/>
		<polygon fill="#999999" points="-105,338 -105,347 -113,342.5 		"/>
	</g>
	<g id="Arrow_Left_Small_8_">
		<polygon fill="#999999" points="-96,347 -96,338 -88,342.5 		"/>
		<polygon fill="#999999" points="-104,347 -104,338 -96,342.5 		"/>
	</g>
	<g id="Arrow_Right_Small_1_">
		<polygon fill="#CCCCCC" points="-130,357 -130,348 -122,352.5 		"/>
	</g>
	<g id="Arrow_Left_Small_5_">
		<polygon fill="#CCCCCC" points="-131,348 -131,357 -139,352.5 		"/>
	</g>
	<g id="Arrow_Left_Small_4_">
		<polygon fill="#CCCCCC" points="-113,348 -113,357 -121,352.5 		"/>
		<polygon fill="#CCCCCC" points="-105,348 -105,357 -113,352.5 		"/>
	</g>
	<g id="Arrow_Left_Small_3_">
		<polygon fill="#CCCCCC" points="-96,357 -96,348 -88,352.5 		"/>
		<polygon fill="#CCCCCC" points="-104,357 -104,348 -96,352.5 		"/>
	</g>
	<circle fill="#999999" cx="-63" cy="342" r="4"/>
	<circle fill="#CCCCCC" cx="-63" cy="352" r="4"/>
</g>
<path fill="#FFFFFF" d="M-28.741,303.971c-0.158-0.267-0.52-0.391-0.806-0.271l-1.482,0.612c-0.285,0.118-0.66,0.059-0.828-0.133
	c-0.171-0.19-0.573-0.861-0.454-1.149l0.612-1.479c0.119-0.286-0.008-0.639-0.283-0.784l-1.743-0.72
	c-0.296-0.096-0.634,0.066-0.753,0.352l-0.613,1.48c-0.12,0.285-0.423,0.508-0.675,0.492c-0.253-0.017-1.022-0.207-1.141-0.492
	l-0.614-1.482c-0.118-0.286-0.461-0.456-0.76-0.377c0,0-0.423,0.109-0.897,0.306s-0.851,0.418-0.851,0.418
	c-0.268,0.155-0.392,0.52-0.272,0.804l0.614,1.482c0.119,0.285,0.06,0.66-0.133,0.83c-0.192,0.168-0.863,0.57-1.148,0.454
	l-1.482-0.614c-0.286-0.116-0.64,0.01-0.782,0.285l-0.723,1.741c-0.092,0.296,0.068,0.637,0.354,0.755l1.482,0.613
	c0.285,0.12,0.507,0.421,0.49,0.675c-0.016,0.252-0.208,1.02-0.494,1.138l-1.48,0.615c-0.286,0.116-0.456,0.462-0.377,0.762
	c0,0,0.111,0.42,0.307,0.895c0.197,0.476,0.417,0.851,0.417,0.851c0.156,0.268,0.52,0.391,0.806,0.273l1.482-0.615
	c0.287-0.117,0.659-0.059,0.829,0.132c0.169,0.193,0.571,0.863,0.455,1.15l-0.613,1.48c-0.12,0.285,0.009,0.641,0.282,0.783
	l1.743,0.722c0.296,0.095,0.635-0.064,0.754-0.353l0.613-1.482c0.12-0.283,0.423-0.507,0.676-0.491
	c0.253,0.017,1.02,0.208,1.139,0.492l0.614,1.483c0.118,0.284,0.462,0.458,0.76,0.377c0,0,0.422-0.111,0.897-0.308
	c0.475-0.194,0.852-0.418,0.852-0.418c0.268-0.154,0.388-0.518,0.269-0.803l-0.614-1.482c-0.117-0.286-0.057-0.659,0.135-0.83
	c0.192-0.169,0.863-0.571,1.149-0.455l1.48,0.615c0.287,0.118,0.639-0.007,0.782-0.284l0.723-1.742
	c0.093-0.293-0.067-0.633-0.354-0.753l-1.481-0.614c-0.287-0.12-0.508-0.423-0.491-0.675c0.016-0.253,0.207-1.02,0.493-1.139
	l1.482-0.613c0.286-0.118,0.454-0.463,0.377-0.763c0,0-0.109-0.421-0.307-0.896C-28.522,304.346-28.741,303.971-28.741,303.971z
	 M-34.836,310.807c-1.552,0.644-3.329-0.089-3.973-1.644c-0.643-1.554,0.094-3.329,1.646-3.972c1.552-0.643,3.33,0.092,3.972,1.645
	C-32.547,308.389-33.284,310.166-34.836,310.807z"/>
<polygon fill="#999999" points="-110,330 -116,334 -110,338 "/>
<polygon fill="#B9B9B9" points="-27,300 -23,305 -19,300 "/>
<polygon fill="#999999" points="-27,305 -23,310 -19,305 "/>
<polygon fill="#B9B9B9" points="-19,315 -23,310 -27,315 "/>
<polygon fill="#999999" points="-19,320 -23,315 -27,320 "/>
<g>
	<g>
		<circle fill="none" cx="-45.085" cy="329.914" r="4.227"/>
		<path fill="#FFFFFF" d="M-36.01,337.156l-1.988-1.987c-0.32-0.32-0.765-0.411-1.176-0.317l-1.274-1.273
			c0.797-1.008,1.277-2.279,1.277-3.664c0-3.267-2.648-5.914-5.914-5.914c-3.267,0-5.915,2.647-5.915,5.914s2.648,5.914,5.915,5.914
			c1.405,0,2.694-0.492,3.708-1.311l1.269,1.268c-0.094,0.411-0.003,0.856,0.317,1.177l1.988,1.987c0.495,0.495,1.298,0.495,1.793,0
			C-35.516,338.455-35.516,337.652-36.01,337.156z M-45.085,334.141c-2.334,0-4.228-1.893-4.228-4.227s1.893-4.227,4.228-4.227
			c2.333,0,4.227,1.893,4.227,4.227S-42.751,334.141-45.085,334.141z"/>
	</g>
	<circle opacity="0.4" fill="#FFFFFF" cx="-45.085" cy="329.914" r="4.914"/>
</g>
<polygon fill="#B9B9B9" points="-78,326.334 -79.333,325 -82,327.666 -84.667,325 -86,326.334 -83.333,329 -86,331.666 
	-84.667,332.999 -82,330.333 -79.333,332.999 -78,331.666 -80.667,329 "/>
<polygon fill="#999999" points="-70,326.334 -71.333,325 -74,327.666 -76.667,325 -78,326.334 -75.333,329 -78,331.666 
	-76.667,332.999 -74,330.333 -71.333,332.999 -70,331.666 -72.667,329 "/>
<polygon fill="#999999" points="-110,330 -102,330 -106,336 "/>
<polygon fill="#999999" points="-94,336 -102,336 -98,330 "/>
<g>
	<g>
		<path fill="#999999" d="M-124.01,313.156l-1.988-1.987c-0.32-0.32-0.765-0.411-1.176-0.317l-1.274-1.273
			c0.797-1.008,1.277-2.279,1.277-3.664c0-3.267-2.648-5.914-5.914-5.914c-3.267,0-5.915,2.647-5.915,5.914s2.648,5.914,5.915,5.914
			c1.405,0,2.694-0.492,3.708-1.311l1.269,1.268c-0.094,0.411-0.003,0.856,0.317,1.177l1.988,1.987c0.495,0.495,1.298,0.495,1.793,0
			C-123.516,314.455-123.516,313.652-124.01,313.156z M-133.085,310.141c-2.334,0-4.228-1.893-4.228-4.227s1.893-4.227,4.228-4.227
			c2.333,0,4.227,1.893,4.227,4.227S-130.751,310.141-133.085,310.141z"/>
	</g>
	<circle opacity="0.4" fill="#999999" cx="-133.085" cy="305.914" r="4.914"/>
</g>
<g opacity="0.6">
	<polygon opacity="0.2" points="-119,318 -121,316 -124,319 -127,316 -129,318 -126,321 -129,324 -127,326 -124,323 -121,326 
		-119,324 -122,321 	"/>
	<polygon fill="#FFFFFF" points="-119,319 -121,317 -124,320 -127,317 -129,319 -126,322 -129,325 -127,327 -124,324 -121,327 
		-119,325 -122,322 	"/>
</g>
<g>
	<polygon opacity="0.2" points="-129,318 -131,316 -134,319 -137,316 -139,318 -136,321 -139,324 -137,326 -134,323 -131,326 
		-129,324 -132,321 	"/>
	<polygon fill="#FFFFFF" points="-129,319 -131,317 -134,320 -137,317 -139,319 -136,322 -139,325 -137,327 -134,324 -131,327 
		-129,325 -132,322 	"/>
</g>
</svg>
