<?xml version="1.0" encoding="utf-8"?>
<!-- Generator: Adobe Illustrator 15.1.0, SVG Export Plug-In . SVG Version: 6.00 Build 0)  -->
<!DOCTYPE svg PUBLIC "-//W3C//DTD SVG 1.1//EN" "http://www.w3.org/Graphics/SVG/1.1/DTD/svg11.dtd">
<svg version="1.1" id="Icons" xmlns="http://www.w3.org/2000/svg" xmlns:xlink="http://www.w3.org/1999/xlink" x="0px" y="0px"
	 width="120px" height="57px" viewBox="6.5 65 120 57" enable-background="new 6.5 65 120 57" xml:space="preserve">
<rect id="Debug_BG" x="-13.5" y="45" display="none" fill="#FF993F" width="158" height="244"/>
<rect x="86.5" y="81" display="none" fill="#FC7232" width="32" height="32"/>
<g id="Calendar_Icon">
	<path fill="#999999" d="M84.5,65v16h17V65H84.5z M88.5,80h-3v-3h3V80z M88.5,76h-3v-3h3V76z M88.5,72h-3v-3h3V72z M92.5,80h-3v-3h3
		V80z M92.5,76h-3v-3h3V76z M92.5,72h-3v-3h3V72z M96.5,80h-3v-3h3V80z M96.5,76h-3v-3h3V76z M96.5,72h-3v-3h3V72z M100.5,80h-3v-3
		h3V80z M100.5,76h-3v-3h3V76z M100.5,72h-3v-3h3V72z"/>
</g>
<g>
	<path fill="#FFFFFF" d="M29.5,65v30h30V65H29.5z M56.45,86.932c-3.82,6.575-25.795,10.678-25.257-3.227
		c0.704-18.166,21.78-15.788,21.78-15.788s-9.297-0.694-15.018,4.569c-5.088,4.683-8.005,14.912,0.287,18.291
		c5.197,2.117,14.971-1.438,17.466-5.521c6.188-10.12-8.029-15.194-8.029-15.194S64.15,73.684,56.45,86.932z"/>
</g>
<g>
	<g>
		<path fill="#CCCCCC" d="M59.5,77h24l-12-12L59.5,77z"/>
	</g>
	<g>
		<path fill="#FFFFFF" d="M60.5,78h22l-11-11L60.5,78z"/>
	</g>
</g>
<g>
	<g>
		<path fill="#CCCCCC" d="M83.5,78h-24l12,12L83.5,78z"/>
	</g>
	<g>
		<path fill="#FFFFFF" d="M82.5,77h-22l11,11L82.5,77z"/>
	</g>
</g>
<g>
	<polygon id="Arrow_Down_Small_5_" fill="#CCCCCC" points="58.5,113 67.5,113 63,121 	"/>
	<polygon id="Arrow_Up_Small_3_" fill="#CCCCCC" points="77.5,121 68.5,121 73,113 	"/>
	<g id="Arrow_Right_Small_2_">
		<polygon fill="#999999" points="15.5,112 15.5,103 23.5,107.5 		"/>
	</g>
	<g id="Arrow_Left_Small_10_">
		<polygon fill="#999999" points="14.5,103 14.5,112 6.5,107.5 		"/>
	</g>
	<polygon id="Arrow_Down_Small_4_" fill="#999999" points="58.5,103 67.5,103 63,111 	"/>
	<polygon id="Arrow_Up_Small_2_" fill="#999999" points="77.5,111 68.5,111 73,103 	"/>
	<g id="Arrow_Left_Small_9_">
		<polygon fill="#999999" points="32.5,103 32.5,112 24.5,107.5 		"/>
		<polygon fill="#999999" points="40.5,103 40.5,112 32.5,107.5 		"/>
	</g>
	<g id="Arrow_Left_Small_8_">
		<polygon fill="#999999" points="49.5,112 49.5,103 57.5,107.5 		"/>
		<polygon fill="#999999" points="41.5,112 41.5,103 49.5,107.5 		"/>
	</g>
	<g id="Arrow_Right_Small_1_">
		<polygon fill="#CCCCCC" points="15.5,122 15.5,113 23.5,117.5 		"/>
	</g>
	<g id="Arrow_Left_Small_5_">
		<polygon fill="#CCCCCC" points="14.5,113 14.5,122 6.5,117.5 		"/>
	</g>
	<g id="Arrow_Left_Small_4_">
		<polygon fill="#CCCCCC" points="32.5,113 32.5,122 24.5,117.5 		"/>
		<polygon fill="#CCCCCC" points="40.5,113 40.5,122 32.5,117.5 		"/>
	</g>
	<g id="Arrow_Left_Small_3_">
		<polygon fill="#CCCCCC" points="49.5,122 49.5,113 57.5,117.5 		"/>
		<polygon fill="#CCCCCC" points="41.5,122 41.5,113 49.5,117.5 		"/>
	</g>
	<circle fill="#999999" cx="82.5" cy="107" r="4"/>
	<circle fill="#CCCCCC" cx="82.5" cy="117" r="4"/>
</g>
<path fill="#FFFFFF" d="M116.759,68.971c-0.157-0.267-0.52-0.391-0.806-0.271l-1.482,0.612c-0.285,0.117-0.66,0.059-0.828-0.135
	c-0.17-0.188-0.572-0.859-0.453-1.148l0.611-1.479c0.119-0.285-0.008-0.639-0.283-0.783l-1.742-0.721
	c-0.297-0.096-0.635,0.066-0.754,0.354l-0.611,1.479c-0.12,0.285-0.424,0.508-0.676,0.492c-0.254-0.018-1.021-0.207-1.142-0.492
	l-0.614-1.48c-0.117-0.287-0.461-0.457-0.76-0.379c0,0-0.423,0.109-0.896,0.308c-0.476,0.196-0.853,0.418-0.853,0.418
	c-0.268,0.155-0.392,0.521-0.271,0.804l0.612,1.482c0.119,0.285,0.062,0.66-0.133,0.83c-0.191,0.168-0.863,0.568-1.146,0.453
	L103.05,68.7c-0.286-0.116-0.64,0.01-0.782,0.284l-0.723,1.74c-0.092,0.297,0.068,0.639,0.354,0.756l1.482,0.612
	c0.285,0.12,0.508,0.421,0.49,0.675c-0.016,0.254-0.208,1.021-0.494,1.14l-1.48,0.614c-0.285,0.115-0.455,0.463-0.377,0.763
	c0,0,0.111,0.42,0.309,0.896c0.195,0.477,0.417,0.852,0.417,0.852c0.155,0.268,0.521,0.391,0.806,0.271l1.482-0.615
	c0.285-0.115,0.658-0.059,0.828,0.133c0.168,0.193,0.57,0.863,0.455,1.15l-0.612,1.479c-0.12,0.284,0.009,0.641,0.28,0.782
	l1.744,0.723c0.295,0.095,0.636-0.064,0.754-0.354l0.613-1.481c0.119-0.283,0.422-0.507,0.676-0.491
	c0.252,0.018,1.021,0.208,1.14,0.492l0.612,1.482c0.119,0.283,0.463,0.457,0.762,0.377c0,0,0.422-0.11,0.896-0.309
	c0.476-0.193,0.853-0.418,0.853-0.418c0.268-0.154,0.388-0.518,0.269-0.803l-0.613-1.482c-0.117-0.285-0.058-0.658,0.136-0.83
	c0.192-0.168,0.862-0.57,1.149-0.455l1.479,0.615c0.287,0.118,0.639-0.007,0.781-0.283l0.724-1.742
	c0.093-0.293-0.065-0.633-0.354-0.752l-1.48-0.614c-0.287-0.12-0.508-0.423-0.491-0.675c0.017-0.254,0.207-1.021,0.493-1.141
	l1.48-0.611c0.287-0.119,0.455-0.465,0.377-0.765c0,0-0.107-0.421-0.307-0.896C116.979,69.346,116.759,68.971,116.759,68.971z
	 M110.664,75.807c-1.553,0.646-3.329-0.089-3.973-1.644c-0.645-1.554,0.094-3.329,1.646-3.972c1.552-0.645,3.33,0.092,3.972,1.645
	C112.953,73.389,112.216,75.166,110.664,75.807z"/>
<polygon fill="#999999" points="35.5,95 29.5,99 35.5,103 "/>
<polygon fill="#B9B9B9" points="118.5,65 122.5,70 126.5,65 "/>
<polygon fill="#999999" points="118.5,70 122.5,75 126.5,70 "/>
<polygon fill="#B9B9B9" points="126.5,80 122.5,75 118.5,80 "/>
<polygon fill="#999999" points="126.5,85 122.5,80 118.5,85 "/>
<g>
	<g>
		<circle fill="none" cx="100.415" cy="94.914" r="4.227"/>
		<path fill="#FFFFFF" d="M109.49,102.156l-1.988-1.987c-0.32-0.319-0.766-0.411-1.176-0.317l-1.274-1.271
			c0.798-1.008,1.277-2.279,1.277-3.664c0-3.268-2.647-5.914-5.914-5.914S94.5,91.648,94.5,94.915s2.648,5.914,5.915,5.914
			c1.405,0,2.694-0.492,3.708-1.312l1.27,1.269c-0.095,0.411-0.004,0.854,0.316,1.177l1.988,1.987c0.494,0.495,1.298,0.495,1.793,0
			C109.984,103.455,109.984,102.652,109.49,102.156z M100.415,99.141c-2.334,0-4.228-1.893-4.228-4.227s1.893-4.227,4.228-4.227
			c2.333,0,4.228,1.893,4.228,4.227S102.749,99.141,100.415,99.141z"/>
	</g>
	<circle opacity="0.4" fill="#FFFFFF" enable-background="new    " cx="100.415" cy="94.914" r="4.914"/>
</g>
<polygon fill="#B9B9B9" points="67.5,91.334 66.167,90 63.5,92.666 60.833,90 59.5,91.334 62.167,94 59.5,96.666 60.833,97.999 
	63.5,95.333 66.167,97.999 67.5,96.666 64.833,94 "/>
<polygon fill="#999999" points="75.5,91.334 74.167,90 71.5,92.666 68.833,90 67.5,91.334 70.167,94 67.5,96.666 68.833,97.999 
	71.5,95.333 74.167,97.999 75.5,96.666 72.833,94 "/>
<polygon fill="#999999" points="35.5,95 43.5,95 39.5,101 "/>
<polygon fill="#999999" points="51.5,101 43.5,101 47.5,95 "/>
<g>
	<g>
		<path fill="#999999" d="M21.49,78.156l-1.988-1.987c-0.32-0.319-0.765-0.411-1.176-0.317l-1.274-1.271
			c0.797-1.008,1.277-2.279,1.277-3.664c0-3.268-2.648-5.914-5.914-5.914C9.148,65.001,6.5,67.648,6.5,70.915
			s2.648,5.914,5.915,5.914c1.405,0,2.694-0.492,3.708-1.312l1.269,1.269c-0.094,0.411-0.003,0.854,0.317,1.177l1.988,1.987
			c0.495,0.495,1.298,0.495,1.793,0C21.984,79.455,21.984,78.652,21.49,78.156z M12.415,75.141c-2.334,0-4.228-1.893-4.228-4.227
			s1.893-4.227,4.228-4.227c2.333,0,4.227,1.894,4.227,4.228S14.749,75.141,12.415,75.141z"/>
	</g>
	<circle opacity="0.4" fill="#999999" enable-background="new    " cx="12.415" cy="70.914" r="4.914"/>
</g>
<g opacity="0.6">
	<polygon opacity="0.2" enable-background="new    " points="26.5,83 24.5,81 21.5,84 18.5,81 16.5,83 19.5,86 16.5,89 18.5,91 
		21.5,88 24.5,91 26.5,89 23.5,86 	"/>
	<polygon fill="#FFFFFF" points="26.5,84 24.5,82 21.5,85 18.5,82 16.5,84 19.5,87 16.5,90 18.5,92 21.5,89 24.5,92 26.5,90 
		23.5,87 	"/>
</g>
<g>
	<polygon opacity="0.2" enable-background="new    " points="16.5,83 14.5,81 11.5,84 8.5,81 6.5,83 9.5,86 6.5,89 8.5,91 11.5,88 
		14.5,91 16.5,89 13.5,86 	"/>
	<polygon fill="#FFFFFF" points="16.5,84 14.5,82 11.5,85 8.5,82 6.5,84 9.5,87 6.5,90 8.5,92 11.5,89 14.5,92 16.5,90 13.5,87 	"/>
</g>
</svg>
