<?xml version="1.0" encoding="utf-8"?>
<!-- Generator: Adobe Illustrator 15.1.0, SVG Export Plug-In . SVG Version: 6.00 Build 0)  -->
<!DOCTYPE svg PUBLIC "-//W3C//DTD SVG 1.1//EN" "http://www.w3.org/Graphics/SVG/1.1/DTD/svg11.dtd">
<svg version="1.1" xmlns="http://www.w3.org/2000/svg" xmlns:xlink="http://www.w3.org/1999/xlink" x="0px" y="0px" width="28px"
	 height="43.999px" viewBox="0 0 28 43.999" enable-background="new 0 0 28 43.999" xml:space="preserve">
<g id="Layer_2">
</g>
<g id="Layer_1">
	<rect x="-46" y="-18" display="none" fill="#7F3B00" width="123" height="79"/>
	<polygon fill="#FFFFFF" points="28,37 24,32 20,37 	"/>
	<polygon fill="#FFFFFF" points="20,24 24,29 28,24 	"/>
	<g>
		<g>
			<path fill="#999999" d="M21.629,13.154l-1.988-1.986c-0.319-0.32-0.765-0.412-1.176-0.318l-1.273-1.271
				c0.797-1.008,1.277-2.279,1.277-3.664C18.469,2.646,15.821,0,12.555,0C9.288,0,6.639,2.646,6.639,5.914
				c0,3.266,2.648,5.914,5.916,5.914c1.404,0,2.693-0.492,3.707-1.312l1.27,1.27c-0.094,0.41-0.003,0.854,0.316,1.176l1.988,1.988
				c0.495,0.494,1.299,0.494,1.793,0C22.124,14.453,22.124,13.65,21.629,13.154z M12.555,10.139c-2.334,0-4.229-1.893-4.229-4.227
				s1.893-4.227,4.229-4.227c2.332,0,4.227,1.895,4.227,4.229S14.889,10.139,12.555,10.139z"/>
		</g>
		<circle opacity="0.4" fill="#999999" enable-background="new    " cx="12.555" cy="5.912" r="4.914"/>
	</g>
	<polygon fill="#B9B9B9" points="8,26.334 6.667,25 4,27.667 1.333,25 0,26.334 2.667,29.001 0,31.667 1.333,33 4,30.333 6.667,33 
		8,31.667 5.333,29.001 	"/>
	<polygon fill="#999999" points="8,37.334 6.667,36 4,38.667 1.333,36 0,37.334 2.667,40.001 0,42.667 1.333,44 4,41.333 6.667,44 
		8,42.667 5.333,40.001 	"/>
	<g>
		<polygon opacity="0.2" points="18,25.334 16.667,24 14,26.667 11.333,24 10,25.334 12.667,28.001 10,30.666 11.333,32 14,29.333 
			16.667,32 18,30.666 15.333,28.001 		"/>
		<polygon fill="#FFFFFF" points="18,26.334 16.667,25 14,27.667 11.333,25 10,26.334 12.667,29.001 10,31.667 11.333,33 14,30.333 
			16.667,33 18,31.667 15.333,29.001 		"/>
	</g>
	<g>
		<polygon opacity="0.2" points="18,36.334 16.667,35 14,37.666 11.333,35 10,36.334 12.667,39 10,41.666 11.333,43 14,40.334 
			16.667,43 18,41.666 15.333,39 		"/>
		<polygon fill="#DDDDDD" points="18,37.335 16.667,36 14,38.666 11.333,36 10,37.335 12.667,40.001 10,42.667 11.333,44 14,41.334 
			16.667,44 18,42.667 15.333,40.001 		"/>
	</g>
</g>
</svg>
